<svg width="272" height="80" viewBox="0 0 272 80" fill="none" xmlns="http://www.w3.org/2000/svg">
<path d="M42.7535 43.0096L52.4864 57.8395L61.4777 52.7811L48.6949 33.222L42.7535 43.0096Z" fill="#9DA7BF"/>
<path d="M69.6658 46.8322L69.6591 42.7791L55.6918 21.6602L50.51 30.1961L63.9935 51.3657L68.8686 48.6232C69.3468 48.2461 69.6362 47.6929 69.6665 47.0959L69.6658 46.8322Z" fill="#9DA7BF"/>
<path d="M11.1357 50.654L18.0201 54.5052L40.9301 18.8374L37.0419 18.7378C33.729 18.6924 30.1603 19.5285 28.5223 22.1241L15.5125 41.6997L11.1357 48.2281V50.654Z" fill="#9DA7BF"/>
<path d="M54.153 18.8374L43.9053 18.8735L20.7209 56.0144L28.8246 60.5438L31.0284 56.9156L54.153 18.8374Z" fill="#9DA7BF"/>
<path d="M90.9961 54.1189L101.224 27.0888H106.208L116.361 54.1189H110.634L105.39 39.5612C105.241 39.1493 105.055 38.6216 104.832 37.978C104.633 37.3345 104.423 36.6523 104.199 35.9315C103.976 35.2107 103.766 34.5285 103.567 33.8849C103.369 33.2156 103.22 32.6621 103.121 32.2245H104.125C103.976 32.7908 103.803 33.3958 103.604 34.0394C103.431 34.6572 103.245 35.3008 103.046 35.9701C102.848 36.6137 102.637 37.2444 102.414 37.8622C102.191 38.48 101.98 39.085 101.782 39.6771L96.5378 54.1189H90.9961ZM95.7567 48.4425L97.5792 43.8088H109.518L111.378 48.4425H95.7567Z" fill="#9DA7BF"/>
<path d="M119.273 54.1189V33.6918H124.369L124.554 40.2563L123.662 38.9048C123.959 37.8493 124.443 36.8968 125.112 36.0473C125.782 35.1721 126.563 34.4899 127.455 34.0008C128.373 33.5116 129.328 33.2671 130.319 33.2671C130.741 33.2671 131.15 33.3057 131.547 33.3829C131.943 33.4602 132.278 33.5503 132.551 33.6532L131.138 39.6771C130.865 39.5226 130.505 39.3939 130.059 39.2909C129.637 39.1622 129.204 39.0979 128.757 39.0979C128.162 39.0979 127.604 39.2137 127.084 39.4454C126.588 39.6513 126.154 39.9602 125.782 40.3721C125.41 40.7583 125.112 41.2216 124.889 41.7623C124.691 42.3029 124.592 42.8949 124.592 43.5385V54.1189H119.273Z" fill="#9DA7BF"/>
<path d="M146.925 54.505C146.057 54.505 145.214 54.3763 144.396 54.1189C143.578 53.8614 142.834 53.5139 142.164 53.0763C141.495 52.6129 140.937 52.098 140.491 51.5317C140.044 50.9396 139.759 50.3346 139.635 49.7168L140.825 49.2534L140.565 54.0416H135.581V25.5442H140.9V38.48L139.858 38.0553C140.007 37.4374 140.292 36.8454 140.714 36.279C141.135 35.6869 141.668 35.1721 142.313 34.7344C142.958 34.2711 143.664 33.9107 144.433 33.6532C145.202 33.3958 145.995 33.2671 146.813 33.2671C148.524 33.2671 150.049 33.7305 151.388 34.6572C152.752 35.5582 153.818 36.8067 154.587 38.4028C155.355 39.9989 155.74 41.8266 155.74 43.886C155.74 45.9455 155.355 47.7732 154.587 49.3693C153.843 50.9654 152.801 52.2268 151.462 53.1535C150.123 54.0545 148.611 54.505 146.925 54.505ZM145.66 49.8327C146.652 49.8327 147.508 49.5881 148.227 49.099C148.97 48.5841 149.553 47.8891 149.975 47.0138C150.396 46.1128 150.607 45.0702 150.607 43.886C150.607 42.7276 150.396 41.6979 149.975 40.7969C149.578 39.8959 149.008 39.2008 148.264 38.7117C147.52 38.2226 146.652 37.978 145.66 37.978C144.669 37.978 143.801 38.2226 143.057 38.7117C142.313 39.2008 141.73 39.8959 141.309 40.7969C140.912 41.6979 140.714 42.7276 140.714 43.886C140.714 45.0702 140.912 46.1128 141.309 47.0138C141.73 47.8891 142.313 48.5841 143.057 49.099C143.801 49.5881 144.669 49.8327 145.66 49.8327Z" fill="#9DA7BF"/>
<path d="M160.181 54.1189V33.6918H165.462V54.1189H160.181ZM162.784 29.5215C161.768 29.5215 160.974 29.2641 160.404 28.7492C159.834 28.2086 159.549 27.4621 159.549 26.5096C159.549 25.6343 159.834 24.9264 160.404 24.3858C160.999 23.8194 161.792 23.5363 162.784 23.5363C163.801 23.5363 164.594 23.8066 165.165 24.3472C165.735 24.862 166.02 25.5828 166.02 26.5096C166.02 27.3848 165.722 28.1056 165.127 28.672C164.557 29.2383 163.776 29.5215 162.784 29.5215Z" fill="#9DA7BF"/>
<path d="M173 54.1189V28.5175H178.281V54.1189H173ZM169.318 38.5959V33.6918H182.335V38.5959H169.318Z" fill="#9DA7BF"/>
<path d="M185.74 54.1189V33.6918H190.836L191.022 40.2563L190.129 38.9048C190.426 37.8493 190.91 36.8968 191.579 36.0473C192.249 35.1721 193.03 34.4899 193.923 34.0008C194.84 33.5116 195.795 33.2671 196.786 33.2671C197.208 33.2671 197.617 33.3057 198.014 33.3829C198.41 33.4602 198.745 33.5503 199.018 33.6532L197.605 39.6771C197.332 39.5226 196.972 39.3939 196.526 39.2909C196.104 39.1622 195.671 39.0979 195.224 39.0979C194.629 39.0979 194.071 39.2137 193.551 39.4454C193.055 39.6513 192.621 39.9602 192.249 40.3721C191.877 40.7583 191.579 41.2216 191.356 41.7623C191.158 42.3029 191.059 42.8949 191.059 43.5385V54.1189H185.74Z" fill="#9DA7BF"/>
<path d="M208.817 54.505C207.379 54.505 206.139 54.1832 205.098 53.5396C204.081 52.8703 203.288 51.9307 202.718 50.7208C202.172 49.4851 201.899 48.0049 201.899 46.2801V33.6918H207.181V45.392C207.181 46.3188 207.33 47.1297 207.627 47.8247C207.925 48.494 208.346 49.0089 208.892 49.3693C209.437 49.7297 210.107 49.9099 210.9 49.9099C211.47 49.9099 211.991 49.8198 212.462 49.6396C212.958 49.4336 213.38 49.1505 213.727 48.7901C214.099 48.4297 214.384 48.0049 214.582 47.5158C214.78 47.0267 214.88 46.499 214.88 45.9326V33.6918H220.161V54.1189H215.14L214.954 49.9099L215.921 49.4465C215.623 50.399 215.128 51.2614 214.433 52.0337C213.739 52.806 212.908 53.4109 211.941 53.8486C210.974 54.2862 209.933 54.505 208.817 54.505Z" fill="#9DA7BF"/>
<path d="M225.438 54.1189V33.6918H230.533L230.645 37.5919L229.864 37.7464C230.137 37.077 230.496 36.4721 230.942 35.9315C231.414 35.3909 231.947 34.9275 232.542 34.5414C233.137 34.1552 233.769 33.8592 234.439 33.6532C235.108 33.4215 235.777 33.3057 236.447 33.3057C237.464 33.3057 238.381 33.473 239.199 33.8077C240.017 34.1423 240.712 34.6701 241.282 35.3909C241.852 36.0859 242.299 37.0127 242.621 38.1711L241.803 38.0939L242.063 37.4761C242.385 36.8582 242.794 36.2919 243.29 35.777C243.786 35.2622 244.344 34.8245 244.964 34.4641C245.584 34.1037 246.229 33.8206 246.898 33.6146C247.567 33.4087 248.225 33.3057 248.869 33.3057C250.407 33.3057 251.683 33.6275 252.7 34.2711C253.717 34.8889 254.473 35.8285 254.969 37.0899C255.489 38.3513 255.75 39.8959 255.75 41.7236V54.1189H250.469V42.1098C250.469 41.183 250.345 40.4236 250.097 39.8315C249.849 39.2394 249.489 38.8018 249.018 38.5186C248.547 38.2097 247.939 38.0553 247.196 38.0553C246.625 38.0553 246.092 38.1582 245.596 38.3642C245.125 38.5444 244.704 38.8147 244.332 39.1751C243.985 39.5097 243.712 39.9216 243.514 40.4107C243.315 40.8741 243.216 41.3761 243.216 41.9167V54.1189H237.897V42.0712C237.897 41.2217 237.773 40.5008 237.526 39.9088C237.278 39.2909 236.918 38.8276 236.447 38.5186C235.976 38.2097 235.393 38.0553 234.699 38.0553C234.129 38.0553 233.596 38.1582 233.1 38.3642C232.629 38.5444 232.219 38.8147 231.872 39.1751C231.525 39.5097 231.252 39.9088 231.054 40.3721C230.856 40.8355 230.756 41.3375 230.756 41.8781V54.1189H225.438Z" fill="#9DA7BF"/>
</svg>
