<svg width="26" height="20" viewBox="0 0 26 20" fill="none" xmlns="http://www.w3.org/2000/svg">
<path fill-rule="evenodd" clip-rule="evenodd" d="M22.5955 2.41427C22.5955 2.41427 20.7327 0.30524 16.503 0V0.665936C16.503 0.665936 18.8229 0.521812 21.6945 3.54471C19.5269 1.87701 16.4347 0.832305 13 0.832305C9.56529 0.832305 6.47306 1.87686 4.30545 3.54471C7.17711 0.521812 9.49696 0.665936 9.49696 0.665936V0C5.26734 0.30524 3.40452 2.41427 3.40452 2.41427C0.181573 6.85385 0 16.5661 0 16.5661C3.03589 20.4786 6.85036 19.9793 6.85036 19.9793L8.25152 17.815C6.4446 17.2923 5.15424 16.0922 4.37869 15.1576C6.5424 16.793 9.60356 17.815 13 17.815C16.3964 17.815 19.4576 16.7932 21.6213 15.1576C20.8458 16.092 19.5554 17.2923 17.7485 17.815L19.1496 19.9793C19.1496 19.9793 22.9641 20.4789 26 16.5661C26 16.5661 25.8186 6.85385 22.5955 2.41427ZM8.95224 13.8189C7.7341 13.8189 6.74665 12.697 6.74665 11.3127C6.74665 9.92865 7.7341 8.80655 8.95224 8.80655C10.1704 8.80655 11.1578 9.92865 11.1578 11.3127C11.1578 12.6968 10.1704 13.8189 8.95224 13.8189ZM17.048 13.8189C15.8299 13.8189 14.8424 12.697 14.8424 11.3127C14.8424 9.92865 15.8299 8.80655 17.048 8.80655C18.2662 8.80655 19.2536 9.92865 19.2536 11.3127C19.2536 12.6968 18.2663 13.8189 17.048 13.8189Z" fill="white"/>
</svg>
