<svg width="31" height="18" viewBox="0 0 31 18" fill="none" xmlns="http://www.w3.org/2000/svg">
<path d="M17.4848 9C17.4848 13.9597 13.5861 18 8.74238 18C3.89863 18 0 13.9597 0 9C0 4.04032 3.89863 0 8.74238 0C13.5861 0 17.4848 4.04032 17.4848 9ZM27.0777 9C27.0777 13.6694 25.1166 17.4677 22.7066 17.4677C20.2965 17.4677 18.3354 13.6694 18.3354 9C18.3354 4.33064 20.2965 0.532257 22.7066 0.532257C25.1166 0.532257 27.0777 4.33064 27.0777 9ZM31 9C31 13.1855 30.3148 16.5968 29.4642 16.5968C28.6136 16.5968 27.9284 13.1855 27.9284 9C27.9284 4.81451 28.6136 1.40323 29.4642 1.40323C30.3148 1.40323 31 4.81451 31 9Z" fill="white"/>
</svg>
