<svg width="23" height="20" viewBox="0 0 23 20" fill="none" xmlns="http://www.w3.org/2000/svg">
<path fill-rule="evenodd" clip-rule="evenodd" d="M23 2.36667C22.1536 2.76833 21.2443 3.04 20.2891 3.16167C21.2643 2.53667 22.0125 1.54667 22.3637 0.368333C21.4529 0.946667 20.4424 1.36667 19.3675 1.59333C18.5073 0.611667 17.2807 0 15.9237 0C12.8785 0 10.6383 3.04 11.3267 6.19833C7.406 5.98833 3.9284 3.97833 1.6008 0.923333C0.364933 3.19167 0.959867 6.16167 3.06207 7.665C2.28773 7.63833 1.56093 7.41167 0.9246 7.03333C0.872467 9.37167 2.43953 11.56 4.70887 12.0467C4.04493 12.24 3.3166 12.285 2.57753 12.1333C3.1786 14.14 4.92047 15.6 6.98587 15.64C5.00173 17.3033 2.50393 18.0467 0 17.7317C2.0884 19.1633 4.56933 20 7.23273 20C15.9942 20 20.9438 12.0817 20.6448 4.98C21.5679 4.26833 22.3667 3.37833 23 2.36667Z" fill="white"/>
</svg>
